<?xml version="1.0" encoding="iso-8859-1"?>
<!-- Generator: Adobe Illustrator 19.0.0, SVG Export Plug-In . SVG Version: 6.00 Build 0)  -->
<svg version="1.1" id="Capa_1" xmlns="http://www.w3.org/2000/svg" xmlns:xlink="http://www.w3.org/1999/xlink" x="0px" y="0px"
	 viewBox="0 0 464 464" style="enable-background:new 0 0 464 464;" xml:space="preserve">
<path style="fill:#DBDBDB;" d="M225.44,53.792l-122,64.68c-4.577,2.429-7.438,7.187-7.44,12.368v188.952
	c-0.001,4.615,2.273,8.934,6.08,11.544l122,83.712c2.332,1.599,5.093,2.455,7.92,2.456V52.16
	C229.713,52.16,227.461,52.72,225.44,53.792z"/>
<path style="fill:#89B140;" d="M239.92,415.048l122-83.712c3.807-2.61,6.081-6.929,6.08-11.544V130.84
	c-0.002-5.181-2.863-9.939-7.44-12.368l-122-64.68c-4.103-2.176-9.017-2.176-13.12,0l-122,64.68
	c-4.577,2.429-7.438,7.187-7.44,12.368v188.952c-0.001,4.615,2.273,8.934,6.08,11.544l122,83.712
	C228.853,418.32,235.147,418.32,239.92,415.048z"/>
<path style="fill:#79A73A;" d="M360.56,118.472l-122-64.68c-2.023-1.061-4.276-1.61-6.56-1.6v365.312
	c2.827-0.001,5.588-0.857,7.92-2.456l122-83.712c3.807-2.61,6.081-6.929,6.08-11.544V130.84
	C367.998,125.659,365.137,120.901,360.56,118.472L360.56,118.472z"/>
<path style="fill:#EBEBEB;" d="M64,336.896V112.488c0.001-5.135,2.814-9.857,7.328-12.304l154-83.488
	c4.162-2.256,9.182-2.256,13.344,0l154,83.488c4.514,2.447,7.327,7.169,7.328,12.304v224.408c0.001,4.629-2.287,8.96-6.112,11.568
	l-154,105.136c-4.755,3.256-11.021,3.256-15.776,0l-154-105.136C66.287,345.856,63.999,341.525,64,336.896z M239.92,415.048
	l122-83.712c3.807-2.61,6.081-6.929,6.08-11.544V130.84c-0.002-5.181-2.863-9.939-7.44-12.368l-122-64.68
	c-4.103-2.176-9.017-2.176-13.12,0l-122,64.68c-4.577,2.429-7.438,7.187-7.44,12.368v188.952c-0.001,4.615,2.273,8.934,6.08,11.544
	l122,83.712C228.853,418.32,235.147,418.32,239.92,415.048z"/>
<path style="fill:#DBDBDB;" d="M320,193.264h-56v-56h-64v56h-56v64h56v56h64v-56h56V193.264z"/>
<g>
	<path style="fill:#AAC16B;" d="M24,0h16v16H24V0z"/>
	<path style="fill:#AAC16B;" d="M24,48h16v16H24V48z"/>
	<path style="fill:#AAC16B;" d="M0,24h16v16H0V24z"/>
	<path style="fill:#AAC16B;" d="M48,24h16v16H48V24z"/>
</g>
<g>
	<path style="fill:#89B140;" d="M424,400h16v16h-16V400z"/>
	<path style="fill:#89B140;" d="M424,448h16v16h-16V448z"/>
	<path style="fill:#89B140;" d="M400,424h16v16h-16V424z"/>
	<path style="fill:#89B140;" d="M448,424h16v16h-16V424z"/>
	<path style="fill:#89B140;" d="M304,121.264h16v16h-16V121.264z"/>
	<path style="fill:#89B140;" d="M288,153.264h16v16h-16V153.264z"/>
	<path style="fill:#89B140;" d="M320,153.264h16v16h-16V153.264z"/>
</g>
<g>
	<path style="fill:#79A73A;" d="M144,313.264h16v16h-16V313.264z"/>
	<path style="fill:#79A73A;" d="M128,281.264h16v16h-16V281.264z"/>
	<path style="fill:#79A73A;" d="M160,281.264h16v16h-16V281.264z"/>
</g>
<path style="fill:#EAEAE8;" d="M232,313.264v-176h-32v56h-56v64h56v56H232z"/>
<path style="fill:#F0F0F0;" d="M224.08,415.048l-122-83.712c-3.807-2.61-6.081-6.929-6.08-11.544V130.84
	c0.002-5.181,2.863-9.939,7.44-12.368l122-64.68c2.023-1.061,4.276-1.61,6.56-1.6V15.008c-2.33-0.002-4.623,0.578-6.672,1.688
	l-154,83.488C66.813,102.63,64,107.353,64,112.488v224.408c-0.001,4.628,2.284,8.957,6.104,11.568l154,105.136
	c2.331,1.575,5.083,2.412,7.896,2.4v-38.496C229.173,417.503,226.412,416.647,224.08,415.048L224.08,415.048z"/>
<g>
</g>
<g>
</g>
<g>
</g>
<g>
</g>
<g>
</g>
<g>
</g>
<g>
</g>
<g>
</g>
<g>
</g>
<g>
</g>
<g>
</g>
<g>
</g>
<g>
</g>
<g>
</g>
<g>
</g>
</svg>
